<svg preserveAspectRatio="xMidYMid meet" overflow="visible" style="display: block;" width="19" height="19" viewBox="0 0 19 19" fill="none" xmlns="http://www.w3.org/2000/svg">
<g id="Social Media Icon Square/Instagram">
<path id="Instagram" d="M9.85156 0.39502C13.4466 0.39502 15.2443 0.394824 16.5391 1.25146C17.1172 1.63402 17.6126 2.12936 17.9951 2.70752C18.8518 4.00225 18.8516 5.79995 18.8516 9.39502C18.8516 12.9901 18.8518 14.7878 17.9951 16.0825C17.6126 16.6607 17.1172 17.156 16.5391 17.5386C15.2443 18.3952 13.4466 18.395 9.85156 18.395C6.25649 18.395 4.45879 18.3952 3.16406 17.5386C2.5859 17.156 2.09056 16.6607 1.70801 16.0825C0.851367 14.7878 0.851563 12.9901 0.851563 9.39502C0.851563 5.79995 0.851367 4.00225 1.70801 2.70752C2.09056 2.12936 2.5859 1.63402 3.16406 1.25146C4.45879 0.394824 6.25649 0.39502 9.85156 0.39502ZM9.85059 4.73584C7.27737 4.73595 5.19143 6.82179 5.19141 9.39502C5.19141 11.9683 7.27736 14.0541 9.85059 14.0542C12.4239 14.0542 14.5098 11.9683 14.5098 9.39502C14.5097 6.82172 12.4239 4.73584 9.85059 4.73584ZM9.85059 6.31201C11.5533 6.31201 12.9336 7.69234 12.9336 9.39502C12.9336 11.0977 11.5533 12.478 9.85059 12.478C8.14798 12.4779 6.76758 11.0976 6.76758 9.39502C6.7676 7.69241 8.148 6.31212 9.85059 6.31201ZM14.6924 3.40674C14.0878 3.40679 13.5977 3.89689 13.5977 4.50146C13.5977 5.10609 14.0878 5.59614 14.6924 5.59619C15.297 5.59619 15.7871 5.10612 15.7871 4.50146C15.7871 3.89686 15.297 3.40674 14.6924 3.40674Z" fill="#092B44"/>
</g>
</svg>
