<svg xmlns="http://www.w3.org/2000/svg" width="1200" height="800" viewBox="0 0 1200 800" role="img" aria-label="Northern Avenue">
  <defs>
    <linearGradient id="sky" x1="0" y1="0" x2="1" y2="1">
      <stop offset="0%" stop-color="#1a2a32"/>
      <stop offset="55%" stop-color="#2a667b"/>
      <stop offset="100%" stop-color="#1f9aa3"/>
    </linearGradient>
  </defs>
  <rect width="1200" height="800" fill="url(#sky)"/>
  <rect x="120" y="220" width="180" height="480" fill="#0f1418" opacity="0.88"/>
  <rect x="330" y="160" width="220" height="540" fill="#121820" opacity="0.92"/>
  <rect x="580" y="260" width="160" height="440" fill="#0f1418" opacity="0.85"/>
  <rect x="770" y="120" width="260" height="580" fill="#151c24" opacity="0.9"/>
  <g fill="#e8f6f7" opacity="0.35">
    <rect x="150" y="260" width="24" height="24"/><rect x="190" y="260" width="24" height="24"/>
    <rect x="150" y="320" width="24" height="24"/><rect x="190" y="320" width="24" height="24"/>
    <rect x="370" y="200" width="28" height="28"/><rect x="420" y="200" width="28" height="28"/>
    <rect x="370" y="260" width="28" height="28"/><rect x="420" y="260" width="28" height="28"/>
    <rect x="820" y="180" width="30" height="30"/><rect x="880" y="180" width="30" height="30"/>
    <rect x="820" y="250" width="30" height="30"/><rect x="880" y="250" width="30" height="30"/>
  </g>
  <rect x="0" y="700" width="1200" height="100" fill="#0a0c10" opacity="0.55"/>
</svg>
